<svg xmlns="http://www.w3.org/2000/svg" xmlns:xlink="http://www.w3.org/1999/xlink" version="1.1" width="128" height="128" viewBox="0 0 100 100">


		<defs>
			<g id="background">
<path fill="url(#background-gradient)" stroke="none" d=" M 100 18.85 Q 100 14.45 97 11.45 93.9 8.35 89.6 8.35 L 27.1 8.35 Q 22.8 8.35 19.8 11.45 16.7 14.55 16.7 18.85 L 16.7 21.05 10.3 21.05 Q 8.9 21.05 7.8 22.05 6.8 23.15 6.8 24.55 6.8 25.95 7.8 27.05 8.9 28.05 10.3 28.05 L 22.6 28.05 Q 24 28.05 25.1 29.05 26.1 30.15 26.1 31.55 26.1 32.95 25.1 34.05 24 35.05 22.6 35.05 L 3.5 35.05 Q 2.1 35.05 1 36.05 0 37.05 0 38.55 0 39.95 1 41.05 2.1 42.05 3.5 42.05 L 16.7 42.05 16.7 61.05 10.3 61.05 Q 8.9 61.05 7.8 62.05 6.8 63.15 6.8 64.55 6.8 65.95 7.8 67.05 8.9 68.05 10.3 68.05 L 32.6 68.05 Q 34 68.05 35.1 69.05 36.1 70.15 36.1 71.55 36.1 72.95 35.1 74.05 34 75.05 32.6 75.05 L 16.7 75.05 16.7 81.25 Q 16.7 85.55 19.8 88.65 22.8 91.65 27.1 91.65 L 89.6 91.65 Q 94 91.65 97 88.65 100 85.65 100 81.25 L 100 18.85 Z"/>
</g><mask id="mask">
<path fill="#FFFFFF" stroke="none" d=" M 100 18.85 Q 100 14.45 97 11.45 93.9 8.35 89.6 8.35 L 27.1 8.35 Q 22.8 8.35 19.8 11.45 16.7 14.55 16.7 18.85 L 16.7 21.05 10.3 21.05 Q 8.9 21.05 7.8 22.05 6.8 23.15 6.8 24.55 6.8 25.95 7.8 27.05 8.9 28.05 10.3 28.05 L 22.6 28.05 Q 24 28.05 25.1 29.05 26.1 30.15 26.1 31.55 26.1 32.95 25.1 34.05 24 35.05 22.6 35.05 L 3.5 35.05 Q 2.1 35.05 1 36.05 0 37.05 0 38.55 0 39.95 1 41.05 2.1 42.05 3.5 42.05 L 16.7 42.05 16.7 61.05 10.3 61.05 Q 8.9 61.05 7.8 62.05 6.8 63.15 6.8 64.55 6.8 65.95 7.8 67.05 8.9 68.05 10.3 68.05 L 32.6 68.05 Q 34 68.05 35.1 69.05 36.1 70.15 36.1 71.55 36.1 72.95 35.1 74.05 34 75.05 32.6 75.05 L 16.7 75.05 16.7 81.25 Q 16.7 85.55 19.8 88.65 22.8 91.65 27.1 91.65 L 89.6 91.65 Q 94 91.65 97 88.65 100 85.65 100 81.25 L 100 18.85 Z"/>
</mask>
			
	<linearGradient id="background-gradient" x1="0" y1="0" y2="1" x2="0" gradientTransform="rotate(220 0.5 0.5)">
		<stop stop-color="#173c60" offset="0%"/>
		<stop stop-color="#07d2c0" offset="100%"/>
	</linearGradient>

			
			
			<g transform="scale(3.3333333333333335) translate(-7.599592208862305e-7 0.09999999403953552)" id="picture"><path d="M20.7.5c-.3-.1-.5 0-.6.3l-11 28c-.1.3 0 .5.3.6h.2c.2 0 .4-.1.5-.3l11-28c0-.2-.2-.5-.4-.6zm9.2 14.1l-8-8c-.2-.2-.5-.2-.7 0s-.2.5 0 .7l7.6 7.6-7.6 7.6c-.2.2-.2.5 0 .7.1.1.2.1.4.1s.3 0 .4-.1l8-8s0-.4-.1-.6zm-21 8L1.2 15l7.6-7.6c.2-.2.2-.6.1-.8s-.5-.2-.7 0l-8 8c-.2.2-.2.5 0 .7l8 8c.1.1.2.1.4.1s.3 0 .4-.1c0-.1 0-.5-.1-.7z"/></g>
			
	<linearGradient id="picture-gradient" x1="0" y1="0" y2="1" x2="0">
		<stop stop-color="#ffffff" offset="0%"/>
		<stop stop-color="#ffffff" offset="100%"/>
	</linearGradient>

		</defs>

		

			<use xlink:href="#background" fill="url(#background-gradient)"/>

		

			<g mask="url(#mask)">
				<g transform="             translate(                                 66 50 )                             translate(0 0)  scale(0.5)                               translate(                                 -66 -50 )">
						<use xlink:href="#picture" fill="url(#picture-gradient)"/>
				</g>
			</g>

		



	</svg>